# xmcd CD database file
#
# Track frame offsets:
#	150
#	16271
#	67411
#	109642
#	166459
#	196123
#
# Disc length: 3348 seconds
#
# Revision: 0
# Processed by: cddbd v1.5.2PL0 Copyright (c) Steve Scherf et al.
# Submitted via: CDex 1.70beta3
#
DISCID=4b0d1206
DTITLE=Joe Morris Quartet - Balance
DYEAR=2013
DGENRE=Jazz
TTITLE0=Thuoght
TTITLE1=Effort
TTITLE2=Trust
TTITLE3=Purpose
TTITLE4=Substance
TTITLE5=Meaning
EXTD=YEAR: 2013
EXTT0=
EXTT1=
EXTT2=
EXTT3=
EXTT4=
EXTT5=
PLAYORDER=
